<?xml version="1.0" encoding="utf-8" standalone="no"?>
<!DOCTYPE svg PUBLIC "-//W3C//DTD SVG 1.1//EN"
  "http://www.w3.org/Graphics/SVG/1.1/DTD/svg11.dtd">
<svg xmlns:xlink="http://www.w3.org/1999/xlink" width="460.8pt" height="345.6pt" viewBox="0 0 460.8 345.6" xmlns="http://www.w3.org/2000/svg" version="1.1">
 <metadata>
  <rdf:RDF xmlns:dc="http://purl.org/dc/elements/1.1/" xmlns:cc="http://creativecommons.org/ns#" xmlns:rdf="http://www.w3.org/1999/02/22-rdf-syntax-ns#">
   <cc:Work>
    <dc:type rdf:resource="http://purl.org/dc/dcmitype/StillImage"/>
    <dc:date>2025-07-17T16:40:51.933000</dc:date>
    <dc:format>image/svg+xml</dc:format>
    <dc:creator>
     <cc:Agent>
      <dc:title>Matplotlib v3.8.4, https://matplotlib.org/</dc:title>
     </cc:Agent>
    </dc:creator>
   </cc:Work>
  </rdf:RDF>
 </metadata>
 <defs>
  <style type="text/css">*{stroke-linejoin: round; stroke-linecap: butt}</style>
 </defs>
 <g id="figure_1">
  <g id="patch_1">
   <path d="M 0 345.6 
L 460.8 345.6 
L 460.8 0 
L 0 0 
z
" style="fill: #ffffff"/>
  </g>
  <g id="axes_1">
   <g id="patch_2">
    <path d="M 57.6 307.584 
L 414.72 307.584 
L 414.72 41.472 
L 57.6 41.472 
z
" style="fill: #ffffff"/>
   </g>
   <g id="matplotlib.axis_1">
    <g id="text_1">
     <!-- x -->
     <g transform="translate(233.200625 319.182437) scale(0.1 -0.1)">
      <defs>
       <path id="DejaVuSans-78" d="M 3513 3500 
L 2247 1797 
L 3578 0 
L 2900 0 
L 1881 1375 
L 863 0 
L 184 0 
L 1544 1831 
L 300 3500 
L 978 3500 
L 1906 2253 
L 2834 3500 
L 3513 3500 
z
" transform="scale(0.015625)"/>
      </defs>
      <use xlink:href="#DejaVuSans-78"/>
     </g>
    </g>
   </g>
   <g id="matplotlib.axis_2">
    <g id="text_2">
     <!-- y -->
     <g transform="translate(51.520313 177.487375) rotate(-90) scale(0.1 -0.1)">
      <defs>
       <path id="DejaVuSans-79" d="M 2059 -325 
Q 1816 -950 1584 -1140 
Q 1353 -1331 966 -1331 
L 506 -1331 
L 506 -850 
L 844 -850 
Q 1081 -850 1212 -737 
Q 1344 -625 1503 -206 
L 1606 56 
L 191 3500 
L 800 3500 
L 1894 763 
L 2988 3500 
L 3597 3500 
L 2059 -325 
z
" transform="scale(0.015625)"/>
      </defs>
      <use xlink:href="#DejaVuSans-79"/>
     </g>
    </g>
   </g>
   <g id="line2d_1">
    <path d="M 73.832727 53.568 
L 77.112066 175.749818 
L 80.391405 216.477091 
L 83.670744 236.840727 
L 86.950083 249.058909 
L 90.229421 257.204364 
L 93.50876 263.022545 
L 96.788099 267.386182 
L 100.067438 270.780121 
L 103.346777 273.495273 
L 106.626116 275.71676 
L 109.905455 277.568 
L 113.184793 279.134434 
L 116.464132 280.477091 
L 119.743471 281.640727 
L 123.02281 282.658909 
L 126.302149 283.557305 
L 129.581488 284.355879 
L 132.860826 285.070392 
L 136.140165 285.713455 
L 139.419504 286.295273 
L 142.698843 286.824198 
L 145.978182 287.30713 
L 149.257521 287.749818 
L 152.53686 288.157091 
L 155.816198 288.533035 
L 159.095537 288.881131 
L 162.374876 289.204364 
L 165.654215 289.505304 
L 168.933554 289.786182 
L 172.212893 290.048938 
L 175.492231 290.295273 
L 178.77157 290.526678 
L 182.050909 290.744471 
L 185.330248 290.949818 
L 188.609587 291.143758 
L 191.888926 291.327214 
L 195.168264 291.501014 
L 198.447603 291.665902 
L 201.726942 291.822545 
L 205.006281 291.971548 
L 208.28562 292.113455 
L 211.564959 292.248761 
L 214.844298 292.377917 
L 218.123636 292.501333 
L 221.402975 292.619383 
L 224.682314 292.73241 
L 227.961653 292.840727 
L 231.240992 292.944623 
L 234.520331 293.044364 
L 237.799669 293.140193 
L 241.079008 293.232336 
L 244.358347 293.321002 
L 247.637686 293.406384 
L 250.917025 293.488661 
L 254.196364 293.568 
L 257.475702 293.644555 
L 260.755041 293.71847 
L 264.03438 293.78988 
L 267.313719 293.858909 
L 270.593058 293.925675 
L 273.872397 293.990287 
L 277.151736 294.052848 
L 280.431074 294.113455 
L 283.710413 294.172196 
L 286.989752 294.229157 
L 290.269091 294.284418 
L 293.54843 294.338053 
L 296.827769 294.390134 
L 300.107107 294.440727 
L 303.386446 294.489895 
L 306.665785 294.537697 
L 309.945124 294.584189 
L 313.224463 294.629425 
L 316.503802 294.673455 
L 319.78314 294.716325 
L 323.062479 294.758083 
L 326.341818 294.798769 
L 329.621157 294.838426 
L 332.900496 294.877091 
L 336.179835 294.914801 
L 339.459174 294.951592 
L 342.738512 294.987496 
L 346.017851 295.022545 
L 349.29719 295.05677 
L 352.576529 295.090199 
L 355.855868 295.122859 
L 359.135207 295.154777 
L 362.414545 295.185978 
L 365.693884 295.216485 
L 368.973223 295.246322 
L 372.252562 295.27551 
L 375.531901 295.30407 
L 378.81124 295.332023 
L 382.090579 295.359388 
L 385.369917 295.386182 
L 388.649256 295.412424 
L 391.928595 295.43813 
L 395.207934 295.463317 
L 398.487273 295.488 
" clip-path="url(#pe97884131c)" style="fill: none; stroke: #1f77b4; stroke-width: 1.5; stroke-linecap: square"/>
   </g>
   <g id="patch_3">
    <path d="M 57.6 307.584 
L 57.6 41.472 
" style="fill: none; stroke: #000000; stroke-width: 0.8; stroke-linejoin: miter; stroke-linecap: square"/>
   </g>
   <g id="patch_4">
    <path d="M 414.72 307.584 
L 414.72 41.472 
" style="fill: none; stroke: #000000; stroke-width: 0.8; stroke-linejoin: miter; stroke-linecap: square"/>
   </g>
   <g id="patch_5">
    <path d="M 57.6 307.584 
L 414.72 307.584 
" style="fill: none; stroke: #000000; stroke-width: 0.8; stroke-linejoin: miter; stroke-linecap: square"/>
   </g>
   <g id="patch_6">
    <path d="M 57.6 41.472 
L 414.72 41.472 
" style="fill: none; stroke: #000000; stroke-width: 0.8; stroke-linejoin: miter; stroke-linecap: square"/>
   </g>
  </g>
 </g>
 <defs>
  <clipPath id="pe97884131c">
   <rect x="57.6" y="41.472" width="357.12" height="266.112"/>
  </clipPath>
 </defs>
</svg>
