<?xml version="1.0" encoding="utf-8" standalone="no"?>
<!DOCTYPE svg PUBLIC "-//W3C//DTD SVG 1.1//EN"
  "http://www.w3.org/Graphics/SVG/1.1/DTD/svg11.dtd">
<svg xmlns:xlink="http://www.w3.org/1999/xlink" width="460.8pt" height="345.6pt" viewBox="0 0 460.8 345.6" xmlns="http://www.w3.org/2000/svg" version="1.1">
 <metadata>
  <rdf:RDF xmlns:dc="http://purl.org/dc/elements/1.1/" xmlns:cc="http://creativecommons.org/ns#" xmlns:rdf="http://www.w3.org/1999/02/22-rdf-syntax-ns#">
   <cc:Work>
    <dc:type rdf:resource="http://purl.org/dc/dcmitype/StillImage"/>
    <dc:date>2025-07-17T16:52:37.581000</dc:date>
    <dc:format>image/svg+xml</dc:format>
    <dc:creator>
     <cc:Agent>
      <dc:title>Matplotlib v3.8.4, https://matplotlib.org/</dc:title>
     </cc:Agent>
    </dc:creator>
   </cc:Work>
  </rdf:RDF>
 </metadata>
 <defs>
  <style type="text/css">*{stroke-linejoin: round; stroke-linecap: butt}</style>
 </defs>
 <g id="figure_1">
  <g id="patch_1">
   <path d="M 0 345.6 
L 460.8 345.6 
L 460.8 0 
L 0 0 
z
" style="fill: #ffffff"/>
  </g>
  <g id="axes_1">
   <g id="patch_2">
    <path d="M 57.6 307.584 
L 414.72 307.584 
L 414.72 41.472 
L 57.6 41.472 
z
" style="fill: #ffffff"/>
   </g>
   <g id="matplotlib.axis_1">
    <g id="text_1">
     <!-- x -->
     <g transform="translate(233.200625 319.182437) scale(0.1 -0.1)">
      <defs>
       <path id="DejaVuSans-78" d="M 3513 3500 
L 2247 1797 
L 3578 0 
L 2900 0 
L 1881 1375 
L 863 0 
L 184 0 
L 1544 1831 
L 300 3500 
L 978 3500 
L 1906 2253 
L 2834 3500 
L 3513 3500 
z
" transform="scale(0.015625)"/>
      </defs>
      <use xlink:href="#DejaVuSans-78"/>
     </g>
    </g>
   </g>
   <g id="matplotlib.axis_2">
    <g id="text_2">
     <!-- y -->
     <g transform="translate(51.520313 177.487375) rotate(-90) scale(0.1 -0.1)">
      <defs>
       <path id="DejaVuSans-79" d="M 2059 -325 
Q 1816 -950 1584 -1140 
Q 1353 -1331 966 -1331 
L 506 -1331 
L 506 -850 
L 844 -850 
Q 1081 -850 1212 -737 
Q 1344 -625 1503 -206 
L 1606 56 
L 191 3500 
L 800 3500 
L 1894 763 
L 2988 3500 
L 3597 3500 
L 2059 -325 
z
" transform="scale(0.015625)"/>
      </defs>
      <use xlink:href="#DejaVuSans-79"/>
     </g>
    </g>
   </g>
   <g id="line2d_1">
    <path d="M 73.832727 53.568 
L 77.112066 235.026146 
L 80.391405 268.629506 
L 83.670744 280.390682 
L 86.950083 285.834427 
L 90.229421 288.791522 
L 93.50876 290.574558 
L 96.788099 291.731816 
L 100.067438 292.525229 
L 103.346777 293.092752 
L 106.626116 293.512656 
L 109.905455 293.832026 
L 113.184793 294.080572 
L 116.464132 294.277785 
L 119.743471 294.436887 
L 123.02281 294.5671 
L 126.302149 294.675017 
L 129.581488 294.765453 
L 132.860826 294.841989 
L 136.140165 294.907334 
L 139.419504 294.963568 
L 142.698843 295.01231 
L 145.978182 295.054833 
L 149.257521 295.092152 
L 152.53686 295.125084 
L 155.816198 295.154289 
L 159.095537 295.180309 
L 162.374876 295.203592 
L 165.654215 295.224508 
L 168.933554 295.243368 
L 172.212893 295.260431 
L 175.492231 295.275921 
L 178.77157 295.290023 
L 182.050909 295.3029 
L 185.330248 295.314689 
L 188.609587 295.325509 
L 191.888926 295.335464 
L 195.168264 295.344643 
L 198.447603 295.353125 
L 201.726942 295.360979 
L 205.006281 295.368266 
L 208.28562 295.375038 
L 211.564959 295.381343 
L 214.844298 295.387223 
L 218.123636 295.392716 
L 221.402975 295.397854 
L 224.682314 295.402668 
L 227.961653 295.407184 
L 231.240992 295.411426 
L 234.520331 295.415417 
L 237.799669 295.419175 
L 241.079008 295.422718 
L 244.358347 295.426063 
L 247.637686 295.429223 
L 250.917025 295.432213 
L 254.196364 295.435044 
L 257.475702 295.437727 
L 260.755041 295.440273 
L 264.03438 295.44269 
L 267.313719 295.444988 
L 270.593058 295.447173 
L 273.872397 295.449254 
L 277.151736 295.451236 
L 280.431074 295.453126 
L 283.710413 295.45493 
L 286.989752 295.456652 
L 290.269091 295.458297 
L 293.54843 295.459871 
L 296.827769 295.461376 
L 300.107107 295.462818 
L 303.386446 295.464199 
L 306.665785 295.465523 
L 309.945124 295.466793 
L 313.224463 295.468012 
L 316.503802 295.469182 
L 319.78314 295.470307 
L 323.062479 295.471388 
L 326.341818 295.472427 
L 329.621157 295.473428 
L 332.900496 295.474391 
L 336.179835 295.475318 
L 339.459174 295.476212 
L 342.738512 295.477074 
L 346.017851 295.477905 
L 349.29719 295.478707 
L 352.576529 295.479482 
L 355.855868 295.480229 
L 359.135207 295.480952 
L 362.414545 295.48165 
L 365.693884 295.482325 
L 368.973223 295.482978 
L 372.252562 295.483609 
L 375.531901 295.484221 
L 378.81124 295.484813 
L 382.090579 295.485386 
L 385.369917 295.485942 
L 388.649256 295.48648 
L 391.928595 295.487002 
L 395.207934 295.487509 
L 398.487273 295.488 
" clip-path="url(#pe966417d84)" style="fill: none; stroke: #1f77b4; stroke-width: 1.5; stroke-linecap: square"/>
   </g>
   <g id="patch_3">
    <path d="M 57.6 307.584 
L 57.6 41.472 
" style="fill: none; stroke: #000000; stroke-width: 0.8; stroke-linejoin: miter; stroke-linecap: square"/>
   </g>
   <g id="patch_4">
    <path d="M 414.72 307.584 
L 414.72 41.472 
" style="fill: none; stroke: #000000; stroke-width: 0.8; stroke-linejoin: miter; stroke-linecap: square"/>
   </g>
   <g id="patch_5">
    <path d="M 57.6 307.584 
L 414.72 307.584 
" style="fill: none; stroke: #000000; stroke-width: 0.8; stroke-linejoin: miter; stroke-linecap: square"/>
   </g>
   <g id="patch_6">
    <path d="M 57.6 41.472 
L 414.72 41.472 
" style="fill: none; stroke: #000000; stroke-width: 0.8; stroke-linejoin: miter; stroke-linecap: square"/>
   </g>
  </g>
 </g>
 <defs>
  <clipPath id="pe966417d84">
   <rect x="57.6" y="41.472" width="357.12" height="266.112"/>
  </clipPath>
 </defs>
</svg>
