<?xml version="1.0" encoding="utf-8" standalone="no"?>
<!DOCTYPE svg PUBLIC "-//W3C//DTD SVG 1.1//EN"
  "http://www.w3.org/Graphics/SVG/1.1/DTD/svg11.dtd">
<svg xmlns:xlink="http://www.w3.org/1999/xlink" width="460.8pt" height="345.6pt" viewBox="0 0 460.8 345.6" xmlns="http://www.w3.org/2000/svg" version="1.1">
 <metadata>
  <rdf:RDF xmlns:dc="http://purl.org/dc/elements/1.1/" xmlns:cc="http://creativecommons.org/ns#" xmlns:rdf="http://www.w3.org/1999/02/22-rdf-syntax-ns#">
   <cc:Work>
    <dc:type rdf:resource="http://purl.org/dc/dcmitype/StillImage"/>
    <dc:date>2025-07-17T16:53:49.243000</dc:date>
    <dc:format>image/svg+xml</dc:format>
    <dc:creator>
     <cc:Agent>
      <dc:title>Matplotlib v3.8.4, https://matplotlib.org/</dc:title>
     </cc:Agent>
    </dc:creator>
   </cc:Work>
  </rdf:RDF>
 </metadata>
 <defs>
  <style type="text/css">*{stroke-linejoin: round; stroke-linecap: butt}</style>
 </defs>
 <g id="figure_1">
  <g id="patch_1">
   <path d="M 0 345.6 
L 460.8 345.6 
L 460.8 0 
L 0 0 
z
" style="fill: #ffffff"/>
  </g>
  <g id="axes_1">
   <g id="patch_2">
    <path d="M 57.6 307.584 
L 414.72 307.584 
L 414.72 41.472 
L 57.6 41.472 
z
" style="fill: #ffffff"/>
   </g>
   <g id="matplotlib.axis_1">
    <g id="text_1">
     <!-- x -->
     <g transform="translate(233.200625 319.182437) scale(0.1 -0.1)">
      <defs>
       <path id="DejaVuSans-78" d="M 3513 3500 
L 2247 1797 
L 3578 0 
L 2900 0 
L 1881 1375 
L 863 0 
L 184 0 
L 1544 1831 
L 300 3500 
L 978 3500 
L 1906 2253 
L 2834 3500 
L 3513 3500 
z
" transform="scale(0.015625)"/>
      </defs>
      <use xlink:href="#DejaVuSans-78"/>
     </g>
    </g>
   </g>
   <g id="matplotlib.axis_2">
    <g id="text_2">
     <!-- y -->
     <g transform="translate(51.520313 177.487375) rotate(-90) scale(0.1 -0.1)">
      <defs>
       <path id="DejaVuSans-79" d="M 2059 -325 
Q 1816 -950 1584 -1140 
Q 1353 -1331 966 -1331 
L 506 -1331 
L 506 -850 
L 844 -850 
Q 1081 -850 1212 -737 
Q 1344 -625 1503 -206 
L 1606 56 
L 191 3500 
L 800 3500 
L 1894 763 
L 2988 3500 
L 3597 3500 
L 2059 -325 
z
" transform="scale(0.015625)"/>
      </defs>
      <use xlink:href="#DejaVuSans-79"/>
     </g>
    </g>
   </g>
   <g id="line2d_1">
    <path d="M 73.832727 53.568 
L 77.112066 132.297697 
L 80.391405 167.176248 
L 83.670744 187.968 
L 86.950083 202.156986 
L 90.229421 212.63086 
L 93.50876 220.77115 
L 96.788099 227.332849 
L 100.067438 232.768 
L 103.346777 237.365976 
L 106.626116 241.321751 
L 109.905455 244.772124 
L 113.184793 247.816294 
L 116.464132 250.528178 
L 119.743471 252.964138 
L 123.02281 255.168 
L 126.302149 257.174424 
L 129.581488 259.011232 
L 132.860826 260.701051 
L 136.140165 262.262493 
L 139.419504 263.711031 
L 142.698843 265.059647 
L 145.978182 266.319326 
L 149.257521 267.49943 
L 152.53686 268.608 
L 155.816198 269.651983 
L 159.095537 270.637416 
L 162.374876 271.569575 
L 165.654215 272.453093 
L 168.933554 273.292059 
L 172.212893 274.090095 
L 175.492231 274.850424 
L 178.77157 275.575926 
L 182.050909 276.26918 
L 185.330248 276.932507 
L 188.609587 277.568 
L 191.888926 278.177552 
L 195.168264 278.762882 
L 198.447603 279.325552 
L 201.726942 279.866988 
L 205.006281 280.388493 
L 208.28562 280.89126 
L 211.564959 281.376384 
L 214.844298 281.844875 
L 218.123636 282.297662 
L 221.402975 282.735602 
L 224.682314 283.15949 
L 227.961653 283.570062 
L 231.240992 283.968 
L 234.520331 284.353939 
L 237.799669 284.728471 
L 241.079008 285.092147 
L 244.358347 285.44548 
L 247.637686 285.788953 
L 250.917025 286.123015 
L 254.196364 286.448089 
L 257.475702 286.76457 
L 260.755041 287.072831 
L 264.03438 287.373221 
L 267.313719 287.666069 
L 270.593058 287.951687 
L 273.872397 288.230366 
L 277.151736 288.502383 
L 280.431074 288.768 
L 283.710413 289.027463 
L 286.989752 289.281007 
L 290.269091 289.528853 
L 293.54843 289.771212 
L 296.827769 290.008283 
L 300.107107 290.240255 
L 303.386446 290.467309 
L 306.665785 290.689616 
L 309.945124 290.90734 
L 313.224463 291.120635 
L 316.503802 291.32965 
L 319.78314 291.534525 
L 323.062479 291.735397 
L 326.341818 291.932393 
L 329.621157 292.125637 
L 332.900496 292.315246 
L 336.179835 292.501333 
L 339.459174 292.684006 
L 342.738512 292.863367 
L 346.017851 293.039516 
L 349.29719 293.212546 
L 352.576529 293.382551 
L 355.855868 293.549615 
L 359.135207 293.713824 
L 362.414545 293.875257 
L 365.693884 294.033992 
L 368.973223 294.190104 
L 372.252562 294.343663 
L 375.531901 294.494738 
L 378.81124 294.643397 
L 382.090579 294.789702 
L 385.369917 294.933715 
L 388.649256 295.075495 
L 391.928595 295.2151 
L 395.207934 295.352584 
L 398.487273 295.488 
" clip-path="url(#p3afb799c4f)" style="fill: none; stroke: #1f77b4; stroke-width: 1.5; stroke-linecap: square"/>
   </g>
   <g id="patch_3">
    <path d="M 57.6 307.584 
L 57.6 41.472 
" style="fill: none; stroke: #000000; stroke-width: 0.8; stroke-linejoin: miter; stroke-linecap: square"/>
   </g>
   <g id="patch_4">
    <path d="M 414.72 307.584 
L 414.72 41.472 
" style="fill: none; stroke: #000000; stroke-width: 0.8; stroke-linejoin: miter; stroke-linecap: square"/>
   </g>
   <g id="patch_5">
    <path d="M 57.6 307.584 
L 414.72 307.584 
" style="fill: none; stroke: #000000; stroke-width: 0.8; stroke-linejoin: miter; stroke-linecap: square"/>
   </g>
   <g id="patch_6">
    <path d="M 57.6 41.472 
L 414.72 41.472 
" style="fill: none; stroke: #000000; stroke-width: 0.8; stroke-linejoin: miter; stroke-linecap: square"/>
   </g>
  </g>
 </g>
 <defs>
  <clipPath id="p3afb799c4f">
   <rect x="57.6" y="41.472" width="357.12" height="266.112"/>
  </clipPath>
 </defs>
</svg>
