<?xml version="1.0" encoding="utf-8" standalone="no"?>
<!DOCTYPE svg PUBLIC "-//W3C//DTD SVG 1.1//EN"
  "http://www.w3.org/Graphics/SVG/1.1/DTD/svg11.dtd">
<svg xmlns:xlink="http://www.w3.org/1999/xlink" width="460.8pt" height="345.6pt" viewBox="0 0 460.8 345.6" xmlns="http://www.w3.org/2000/svg" version="1.1">
 <metadata>
  <rdf:RDF xmlns:dc="http://purl.org/dc/elements/1.1/" xmlns:cc="http://creativecommons.org/ns#" xmlns:rdf="http://www.w3.org/1999/02/22-rdf-syntax-ns#">
   <cc:Work>
    <dc:type rdf:resource="http://purl.org/dc/dcmitype/StillImage"/>
    <dc:date>2025-07-17T16:53:21.826000</dc:date>
    <dc:format>image/svg+xml</dc:format>
    <dc:creator>
     <cc:Agent>
      <dc:title>Matplotlib v3.8.4, https://matplotlib.org/</dc:title>
     </cc:Agent>
    </dc:creator>
   </cc:Work>
  </rdf:RDF>
 </metadata>
 <defs>
  <style type="text/css">*{stroke-linejoin: round; stroke-linecap: butt}</style>
 </defs>
 <g id="figure_1">
  <g id="patch_1">
   <path d="M 0 345.6 
L 460.8 345.6 
L 460.8 0 
L 0 0 
z
" style="fill: #ffffff"/>
  </g>
  <g id="axes_1">
   <g id="patch_2">
    <path d="M 57.6 307.584 
L 414.72 307.584 
L 414.72 41.472 
L 57.6 41.472 
z
" style="fill: #ffffff"/>
   </g>
   <g id="matplotlib.axis_1">
    <g id="text_1">
     <!-- x -->
     <g transform="translate(233.200625 319.182437) scale(0.1 -0.1)">
      <defs>
       <path id="DejaVuSans-78" d="M 3513 3500 
L 2247 1797 
L 3578 0 
L 2900 0 
L 1881 1375 
L 863 0 
L 184 0 
L 1544 1831 
L 300 3500 
L 978 3500 
L 1906 2253 
L 2834 3500 
L 3513 3500 
z
" transform="scale(0.015625)"/>
      </defs>
      <use xlink:href="#DejaVuSans-78"/>
     </g>
    </g>
   </g>
   <g id="matplotlib.axis_2">
    <g id="text_2">
     <!-- y -->
     <g transform="translate(51.520313 177.487375) rotate(-90) scale(0.1 -0.1)">
      <defs>
       <path id="DejaVuSans-79" d="M 2059 -325 
Q 1816 -950 1584 -1140 
Q 1353 -1331 966 -1331 
L 506 -1331 
L 506 -850 
L 844 -850 
Q 1081 -850 1212 -737 
Q 1344 -625 1503 -206 
L 1606 56 
L 191 3500 
L 800 3500 
L 1894 763 
L 2988 3500 
L 3597 3500 
L 2059 -325 
z
" transform="scale(0.015625)"/>
      </defs>
      <use xlink:href="#DejaVuSans-79"/>
     </g>
    </g>
   </g>
   <g id="line2d_1">
    <path d="M 73.832727 295.488 
L 77.079273 271.296 
L 80.325818 261.275345 
L 83.572364 253.586227 
L 86.818909 247.104 
L 90.065455 241.393043 
L 93.312 236.229944 
L 96.558545 231.481984 
L 99.805091 227.062691 
L 103.051636 222.912 
L 106.298182 218.986179 
L 109.544727 215.252213 
L 112.791273 211.684454 
L 116.037818 208.262504 
L 119.284364 204.969824 
L 122.530909 201.792787 
L 125.777455 198.72 
L 129.024 195.741829 
L 132.270545 192.850036 
L 135.517091 190.037517 
L 138.763636 187.298087 
L 142.010182 184.626329 
L 145.256727 182.017462 
L 148.503273 179.467244 
L 151.749818 176.971888 
L 154.996364 174.528 
L 158.242909 172.13252 
L 161.489455 169.782681 
L 164.736 167.475969 
L 167.982545 165.210093 
L 171.229091 162.982959 
L 174.475636 160.792645 
L 177.722182 158.637382 
L 180.968727 156.51554 
L 184.215273 154.425612 
L 187.461818 152.366198 
L 190.708364 150.336 
L 193.954909 148.333809 
L 197.201455 146.358496 
L 200.448 144.409008 
L 203.694545 142.484358 
L 206.941091 140.583618 
L 210.187636 138.705921 
L 213.434182 136.850447 
L 216.680727 135.016426 
L 219.927273 133.20313 
L 223.173818 131.409873 
L 226.420364 129.636004 
L 229.666909 127.880907 
L 232.913455 126.144 
L 236.16 124.424727 
L 239.406545 122.722563 
L 242.653091 121.037007 
L 245.899636 119.367582 
L 249.146182 117.713832 
L 252.392727 116.075326 
L 255.639273 114.451649 
L 258.885818 112.842405 
L 262.132364 111.247217 
L 265.378909 109.665722 
L 268.625455 108.097574 
L 271.872 106.54244 
L 275.118545 105.000002 
L 278.365091 103.469953 
L 281.611636 101.952 
L 284.858182 100.445861 
L 288.104727 98.951263 
L 291.351273 97.467946 
L 294.597818 95.995657 
L 297.844364 94.534156 
L 301.090909 93.083206 
L 304.337455 91.642585 
L 307.584 90.212073 
L 310.830545 88.791461 
L 314.077091 87.380547 
L 317.323636 85.979134 
L 320.570182 84.587034 
L 323.816727 83.204062 
L 327.063273 81.830041 
L 330.309818 80.464801 
L 333.556364 79.108174 
L 336.802909 77.76 
L 340.049455 76.420123 
L 343.296 75.088391 
L 346.542545 73.764658 
L 349.789091 72.44878 
L 353.035636 71.140621 
L 356.282182 69.840046 
L 359.528727 68.546924 
L 362.775273 67.261128 
L 366.021818 65.982537 
L 369.268364 64.711028 
L 372.514909 63.446488 
L 375.761455 62.188801 
L 379.008 60.937858 
L 382.254545 59.693551 
L 385.501091 58.455777 
L 388.747636 57.224432 
L 391.994182 55.999418 
L 395.240727 54.780639 
L 398.487273 53.568 
" clip-path="url(#p123e06e761)" style="fill: none; stroke: #1f77b4; stroke-width: 1.5; stroke-linecap: square"/>
   </g>
   <g id="patch_3">
    <path d="M 57.6 307.584 
L 57.6 41.472 
" style="fill: none; stroke: #000000; stroke-width: 0.8; stroke-linejoin: miter; stroke-linecap: square"/>
   </g>
   <g id="patch_4">
    <path d="M 414.72 307.584 
L 414.72 41.472 
" style="fill: none; stroke: #000000; stroke-width: 0.8; stroke-linejoin: miter; stroke-linecap: square"/>
   </g>
   <g id="patch_5">
    <path d="M 57.6 307.584 
L 414.72 307.584 
" style="fill: none; stroke: #000000; stroke-width: 0.8; stroke-linejoin: miter; stroke-linecap: square"/>
   </g>
   <g id="patch_6">
    <path d="M 57.6 41.472 
L 414.72 41.472 
" style="fill: none; stroke: #000000; stroke-width: 0.8; stroke-linejoin: miter; stroke-linecap: square"/>
   </g>
  </g>
 </g>
 <defs>
  <clipPath id="p123e06e761">
   <rect x="57.6" y="41.472" width="357.12" height="266.112"/>
  </clipPath>
 </defs>
</svg>
