<?xml version="1.0" encoding="utf-8" standalone="no"?>
<!DOCTYPE svg PUBLIC "-//W3C//DTD SVG 1.1//EN"
  "http://www.w3.org/Graphics/SVG/1.1/DTD/svg11.dtd">
<svg xmlns:xlink="http://www.w3.org/1999/xlink" width="460.8pt" height="345.6pt" viewBox="0 0 460.8 345.6" xmlns="http://www.w3.org/2000/svg" version="1.1">
 <metadata>
  <rdf:RDF xmlns:dc="http://purl.org/dc/elements/1.1/" xmlns:cc="http://creativecommons.org/ns#" xmlns:rdf="http://www.w3.org/1999/02/22-rdf-syntax-ns#">
   <cc:Work>
    <dc:type rdf:resource="http://purl.org/dc/dcmitype/StillImage"/>
    <dc:date>2025-07-17T16:40:51.503000</dc:date>
    <dc:format>image/svg+xml</dc:format>
    <dc:creator>
     <cc:Agent>
      <dc:title>Matplotlib v3.8.4, https://matplotlib.org/</dc:title>
     </cc:Agent>
    </dc:creator>
   </cc:Work>
  </rdf:RDF>
 </metadata>
 <defs>
  <style type="text/css">*{stroke-linejoin: round; stroke-linecap: butt}</style>
 </defs>
 <g id="figure_1">
  <g id="patch_1">
   <path d="M 0 345.6 
L 460.8 345.6 
L 460.8 0 
L 0 0 
z
" style="fill: #ffffff"/>
  </g>
  <g id="axes_1">
   <g id="patch_2">
    <path d="M 57.6 307.584 
L 414.72 307.584 
L 414.72 41.472 
L 57.6 41.472 
z
" style="fill: #ffffff"/>
   </g>
   <g id="matplotlib.axis_1">
    <g id="text_1">
     <!-- x -->
     <g transform="translate(233.200625 319.182437) scale(0.1 -0.1)">
      <defs>
       <path id="DejaVuSans-78" d="M 3513 3500 
L 2247 1797 
L 3578 0 
L 2900 0 
L 1881 1375 
L 863 0 
L 184 0 
L 1544 1831 
L 300 3500 
L 978 3500 
L 1906 2253 
L 2834 3500 
L 3513 3500 
z
" transform="scale(0.015625)"/>
      </defs>
      <use xlink:href="#DejaVuSans-78"/>
     </g>
    </g>
   </g>
   <g id="matplotlib.axis_2">
    <g id="text_2">
     <!-- y -->
     <g transform="translate(51.520313 177.487375) rotate(-90) scale(0.1 -0.1)">
      <defs>
       <path id="DejaVuSans-79" d="M 2059 -325 
Q 1816 -950 1584 -1140 
Q 1353 -1331 966 -1331 
L 506 -1331 
L 506 -850 
L 844 -850 
Q 1081 -850 1212 -737 
Q 1344 -625 1503 -206 
L 1606 56 
L 191 3500 
L 800 3500 
L 1894 763 
L 2988 3500 
L 3597 3500 
L 2059 -325 
z
" transform="scale(0.015625)"/>
      </defs>
      <use xlink:href="#DejaVuSans-79"/>
     </g>
    </g>
   </g>
   <g id="line2d_1">
    <path d="M 73.832727 295.488 
L 77.079273 295.487758 
L 80.325818 295.486065 
L 83.572364 295.481468 
L 86.818909 295.472517 
L 90.065455 295.45776 
L 93.312 295.435745 
L 96.558545 295.405021 
L 99.805091 295.364137 
L 103.051636 295.31164 
L 106.298182 295.24608 
L 109.544727 295.166004 
L 112.791273 295.069962 
L 116.037818 294.956502 
L 119.284364 294.824172 
L 122.530909 294.67152 
L 125.777455 294.497096 
L 129.024 294.299447 
L 132.270545 294.077123 
L 135.517091 293.828671 
L 138.763636 293.55264 
L 142.010182 293.247579 
L 145.256727 292.912036 
L 148.503273 292.544559 
L 151.749818 292.143698 
L 154.996364 291.708 
L 158.242909 291.236014 
L 161.489455 290.726289 
L 164.736 290.177372 
L 167.982545 289.587813 
L 171.229091 288.95616 
L 174.475636 288.280961 
L 177.722182 287.560765 
L 180.968727 286.794121 
L 184.215273 285.979576 
L 187.461818 285.11568 
L 190.708364 284.20098 
L 193.954909 283.234026 
L 197.201455 282.213366 
L 200.448 281.137548 
L 203.694545 280.00512 
L 206.941091 278.814632 
L 210.187636 277.564631 
L 213.434182 276.253667 
L 216.680727 274.880287 
L 219.927273 273.44304 
L 223.173818 271.940475 
L 226.420364 270.37114 
L 229.666909 268.733583 
L 232.913455 267.026354 
L 236.16 265.248 
L 239.406545 263.39707 
L 242.653091 261.472113 
L 245.899636 259.471676 
L 249.146182 257.394309 
L 252.392727 255.23856 
L 255.639273 253.002977 
L 258.885818 250.686109 
L 262.132364 248.286505 
L 265.378909 245.802712 
L 268.625455 243.23328 
L 271.872 240.576756 
L 275.118545 237.83169 
L 278.365091 234.99663 
L 281.611636 232.070124 
L 284.858182 229.05072 
L 288.104727 225.936968 
L 291.351273 222.727415 
L 294.597818 219.420611 
L 297.844364 216.015103 
L 301.090909 212.50944 
L 304.337455 208.902171 
L 307.584 205.191844 
L 310.830545 201.377007 
L 314.077091 197.45621 
L 317.323636 193.428 
L 320.570182 189.290926 
L 323.816727 185.043537 
L 327.063273 180.68438 
L 330.309818 176.212005 
L 333.556364 171.62496 
L 336.802909 166.921793 
L 340.049455 162.101053 
L 343.296 157.161289 
L 346.542545 152.101048 
L 349.789091 146.91888 
L 353.035636 141.613332 
L 356.282182 136.182954 
L 359.528727 130.626294 
L 362.775273 124.9419 
L 366.021818 119.12832 
L 369.268364 113.184104 
L 372.514909 107.107799 
L 375.761455 100.897955 
L 379.008 94.553119 
L 382.254545 88.07184 
L 385.501091 81.452667 
L 388.747636 74.694148 
L 391.994182 67.794831 
L 395.240727 60.753266 
L 398.487273 53.568 
" clip-path="url(#pe2867f0dfe)" style="fill: none; stroke: #1f77b4; stroke-width: 1.5; stroke-linecap: square"/>
   </g>
   <g id="patch_3">
    <path d="M 57.6 307.584 
L 57.6 41.472 
" style="fill: none; stroke: #000000; stroke-width: 0.8; stroke-linejoin: miter; stroke-linecap: square"/>
   </g>
   <g id="patch_4">
    <path d="M 414.72 307.584 
L 414.72 41.472 
" style="fill: none; stroke: #000000; stroke-width: 0.8; stroke-linejoin: miter; stroke-linecap: square"/>
   </g>
   <g id="patch_5">
    <path d="M 57.6 307.584 
L 414.72 307.584 
" style="fill: none; stroke: #000000; stroke-width: 0.8; stroke-linejoin: miter; stroke-linecap: square"/>
   </g>
   <g id="patch_6">
    <path d="M 57.6 41.472 
L 414.72 41.472 
" style="fill: none; stroke: #000000; stroke-width: 0.8; stroke-linejoin: miter; stroke-linecap: square"/>
   </g>
  </g>
 </g>
 <defs>
  <clipPath id="pe2867f0dfe">
   <rect x="57.6" y="41.472" width="357.12" height="266.112"/>
  </clipPath>
 </defs>
</svg>
