<?xml version="1.0" encoding="utf-8" standalone="no"?>
<!DOCTYPE svg PUBLIC "-//W3C//DTD SVG 1.1//EN"
  "http://www.w3.org/Graphics/SVG/1.1/DTD/svg11.dtd">
<svg xmlns:xlink="http://www.w3.org/1999/xlink" width="460.8pt" height="345.6pt" viewBox="0 0 460.8 345.6" xmlns="http://www.w3.org/2000/svg" version="1.1">
 <metadata>
  <rdf:RDF xmlns:dc="http://purl.org/dc/elements/1.1/" xmlns:cc="http://creativecommons.org/ns#" xmlns:rdf="http://www.w3.org/1999/02/22-rdf-syntax-ns#">
   <cc:Work>
    <dc:type rdf:resource="http://purl.org/dc/dcmitype/StillImage"/>
    <dc:date>2025-07-17T16:40:51.097000</dc:date>
    <dc:format>image/svg+xml</dc:format>
    <dc:creator>
     <cc:Agent>
      <dc:title>Matplotlib v3.8.4, https://matplotlib.org/</dc:title>
     </cc:Agent>
    </dc:creator>
   </cc:Work>
  </rdf:RDF>
 </metadata>
 <defs>
  <style type="text/css">*{stroke-linejoin: round; stroke-linecap: butt}</style>
 </defs>
 <g id="figure_1">
  <g id="patch_1">
   <path d="M 0 345.6 
L 460.8 345.6 
L 460.8 0 
L 0 0 
z
" style="fill: #ffffff"/>
  </g>
  <g id="axes_1">
   <g id="patch_2">
    <path d="M 57.6 307.584 
L 414.72 307.584 
L 414.72 41.472 
L 57.6 41.472 
z
" style="fill: #ffffff"/>
   </g>
   <g id="matplotlib.axis_1">
    <g id="text_1">
     <!-- x -->
     <g transform="translate(233.200625 319.182437) scale(0.1 -0.1)">
      <defs>
       <path id="DejaVuSans-78" d="M 3513 3500 
L 2247 1797 
L 3578 0 
L 2900 0 
L 1881 1375 
L 863 0 
L 184 0 
L 1544 1831 
L 300 3500 
L 978 3500 
L 1906 2253 
L 2834 3500 
L 3513 3500 
z
" transform="scale(0.015625)"/>
      </defs>
      <use xlink:href="#DejaVuSans-78"/>
     </g>
    </g>
   </g>
   <g id="matplotlib.axis_2">
    <g id="text_2">
     <!-- y -->
     <g transform="translate(51.520313 177.487375) rotate(-90) scale(0.1 -0.1)">
      <defs>
       <path id="DejaVuSans-79" d="M 2059 -325 
Q 1816 -950 1584 -1140 
Q 1353 -1331 966 -1331 
L 506 -1331 
L 506 -850 
L 844 -850 
Q 1081 -850 1212 -737 
Q 1344 -625 1503 -206 
L 1606 56 
L 191 3500 
L 800 3500 
L 1894 763 
L 2988 3500 
L 3597 3500 
L 2059 -325 
z
" transform="scale(0.015625)"/>
      </defs>
      <use xlink:href="#DejaVuSans-79"/>
     </g>
    </g>
   </g>
   <g id="line2d_1">
    <path d="M 73.832727 295.488 
L 77.079273 295.463808 
L 80.325818 295.391232 
L 83.572364 295.270272 
L 86.818909 295.100928 
L 90.065455 294.8832 
L 93.312 294.617088 
L 96.558545 294.302592 
L 99.805091 293.939712 
L 103.051636 293.528448 
L 106.298182 293.0688 
L 109.544727 292.560768 
L 112.791273 292.004352 
L 116.037818 291.399552 
L 119.284364 290.746368 
L 122.530909 290.0448 
L 125.777455 289.294848 
L 129.024 288.496512 
L 132.270545 287.649792 
L 135.517091 286.754688 
L 138.763636 285.8112 
L 142.010182 284.819328 
L 145.256727 283.779072 
L 148.503273 282.690432 
L 151.749818 281.553408 
L 154.996364 280.368 
L 158.242909 279.134208 
L 161.489455 277.852032 
L 164.736 276.521472 
L 167.982545 275.142528 
L 171.229091 273.7152 
L 174.475636 272.239488 
L 177.722182 270.715392 
L 180.968727 269.142912 
L 184.215273 267.522048 
L 187.461818 265.8528 
L 190.708364 264.135168 
L 193.954909 262.369152 
L 197.201455 260.554752 
L 200.448 258.691968 
L 203.694545 256.7808 
L 206.941091 254.821248 
L 210.187636 252.813312 
L 213.434182 250.756992 
L 216.680727 248.652288 
L 219.927273 246.4992 
L 223.173818 244.297728 
L 226.420364 242.047872 
L 229.666909 239.749632 
L 232.913455 237.403008 
L 236.16 235.008 
L 239.406545 232.564608 
L 242.653091 230.072832 
L 245.899636 227.532672 
L 249.146182 224.944128 
L 252.392727 222.3072 
L 255.639273 219.621888 
L 258.885818 216.888192 
L 262.132364 214.106112 
L 265.378909 211.275648 
L 268.625455 208.3968 
L 271.872 205.469568 
L 275.118545 202.493952 
L 278.365091 199.469952 
L 281.611636 196.397568 
L 284.858182 193.2768 
L 288.104727 190.107648 
L 291.351273 186.890112 
L 294.597818 183.624192 
L 297.844364 180.309888 
L 301.090909 176.9472 
L 304.337455 173.536128 
L 307.584 170.076672 
L 310.830545 166.568832 
L 314.077091 163.012608 
L 317.323636 159.408 
L 320.570182 155.755008 
L 323.816727 152.053632 
L 327.063273 148.303872 
L 330.309818 144.505728 
L 333.556364 140.6592 
L 336.802909 136.764288 
L 340.049455 132.820992 
L 343.296 128.829312 
L 346.542545 124.789248 
L 349.789091 120.7008 
L 353.035636 116.563968 
L 356.282182 112.378752 
L 359.528727 108.145152 
L 362.775273 103.863168 
L 366.021818 99.5328 
L 369.268364 95.154048 
L 372.514909 90.726912 
L 375.761455 86.251392 
L 379.008 81.727488 
L 382.254545 77.1552 
L 385.501091 72.534528 
L 388.747636 67.865472 
L 391.994182 63.148032 
L 395.240727 58.382208 
L 398.487273 53.568 
" clip-path="url(#p9e7bbcd7b4)" style="fill: none; stroke: #1f77b4; stroke-width: 1.5; stroke-linecap: square"/>
   </g>
   <g id="patch_3">
    <path d="M 57.6 307.584 
L 57.6 41.472 
" style="fill: none; stroke: #000000; stroke-width: 0.8; stroke-linejoin: miter; stroke-linecap: square"/>
   </g>
   <g id="patch_4">
    <path d="M 414.72 307.584 
L 414.72 41.472 
" style="fill: none; stroke: #000000; stroke-width: 0.8; stroke-linejoin: miter; stroke-linecap: square"/>
   </g>
   <g id="patch_5">
    <path d="M 57.6 307.584 
L 414.72 307.584 
" style="fill: none; stroke: #000000; stroke-width: 0.8; stroke-linejoin: miter; stroke-linecap: square"/>
   </g>
   <g id="patch_6">
    <path d="M 57.6 41.472 
L 414.72 41.472 
" style="fill: none; stroke: #000000; stroke-width: 0.8; stroke-linejoin: miter; stroke-linecap: square"/>
   </g>
  </g>
 </g>
 <defs>
  <clipPath id="p9e7bbcd7b4">
   <rect x="57.6" y="41.472" width="357.12" height="266.112"/>
  </clipPath>
 </defs>
</svg>
